<?xml version="1.0" encoding="utf-8"?>
<!-- Generator: Adobe Illustrator 23.0.3, SVG Export Plug-In . SVG Version: 6.00 Build 0)  -->
<svg version="1.1" xmlns="http://www.w3.org/2000/svg" xmlns:xlink="http://www.w3.org/1999/xlink" x="0px" y="0px"
	 viewBox="0 0 114 114" style="enable-background:new 0 0 114 114;" xml:space="preserve">
<style type="text/css">
	.st0{display:none;}
	.st1{display:inline;}
	.st2{fill:#0076D6;}
	.st3{fill:#FFD500;}
	.st4{fill:#028844;}
	.st5{fill:#E22922;}
	.st6{opacity:0.45;fill:none;stroke:#E22922;stroke-miterlimit:10;}
	.st7{opacity:0.5;fill:none;stroke:#E22922;stroke-miterlimit:10;}
	.st8{opacity:0.45;fill:none;stroke:#FFD500;stroke-linecap:round;stroke-linejoin:round;stroke-miterlimit:10;}
	.st9{opacity:0.45;fill:none;stroke:#E22922;stroke-width:1.5;stroke-miterlimit:10;}
	.st10{opacity:0.5;fill:none;stroke:#E22922;stroke-width:1.5;stroke-miterlimit:10;}
	.st11{opacity:0.45;fill:none;stroke:#FFD500;stroke-width:1.5;stroke-linecap:round;stroke-linejoin:round;stroke-miterlimit:10;}
</style>
<g id="L_x26_G" class="st0">
	<g class="st1">
		<path class="st2" d="M83.28532,39.64706c-2.89678-0.19555-6.00468,0.42929-8.90845,1.97325
			c-2.33219,1.24005-4.2458,2.92137-5.66503,4.83557c-3.80827-10.07797-2.31111-21.14651,3.42005-29.74565L83.28532,39.64706z"/>
		<path class="st3" d="M91.96729,32.26733c-2.90383,1.54399-5.15974,3.77116-6.61744,6.28207l-12.7825-22.07948
			c10.33959,0.05368,20.36021,5.00584,26.58774,13.80437C96.77104,30.37894,94.30312,31.02534,91.96729,32.26733z"/>
		<path class="st4" d="M107.83063,19.51049c-3.78096,2.01037-6.28789,5.43032-7.13903,9.14444
			c-0.00003-0.00005,0-0.00012,0.00002-0.00019C94.06271,19.92778,83.5937,15.2557,72.99561,15.77307
			c-0.05649,0.02807-0.11304,0.05564-0.16969,0.08285l0.14758-0.07847c0,0-0.00185-0.00237-0.00237-0.00311
			c0.00816-0.00041,0.0163-0.00087,0.02448-0.00127c11.81138-5.86903,25.59538-4.28605,36.32378,3.0527
			C108.81734,19.02485,108.31985,19.25037,107.83063,19.51049z"/>
		<path class="st5" d="M53.52503,48.49216c-0.08485-12.99803,6.31071-25.31067,17.7812-31.82083
			c0.0049-0.00655,0.00983-0.01304,0.01473-0.01958c0.00033,0.00085,0.00126,0.0037,0.00126,0.0037l0.14758-0.07847
			c-0.05424,0.03175-0.10872,0.06322-0.16357,0.09435c-6.35529,8.49691-8.33616,19.7887-4.80802,30.16437
			c0.00008,0.00002,0.00014,0.00003,0.00018,0.00008c-3.5551-1.37128-7.79222-1.20535-11.57318,0.80502
			C54.43598,47.90093,53.97083,48.18726,53.52503,48.49216z"/>
		<path d="M111.97881,18.0584c-10.96127-7.69533-25.57725-9.37393-38.39233-3.37677
			c-0.35516,0.1662-0.70846,0.33979-1.06068,0.51784c-0.6951-0.91259-1.97304-2.5909-2.05136-2.69813
			c-0.10781-0.14777-0.30791-0.01209-0.30791-0.01209l-0.00304,0.00162c0,0-0.22438,0.09002-0.16221,0.26206
			c0.04512,0.12482,0.72139,2.1211,1.08931,3.20802C58.31455,23.09886,51.1462,36.50491,51.40232,50.26458
			c0.01562,0.84104,0.05919,1.6833,0.1307,2.52558c0.61225-0.73018,1.30452-1.41006,2.07711-2.021
			c0.67836-0.53643,1.41633-1.02111,2.21069-1.44349c3.67469-1.95387,7.7772-2.15996,11.2681-0.91101
			c-0.20837-0.52265-0.40337-1.04799-0.58308-1.57587c-3.55671-1.37444-7.79714-1.20972-11.58083,0.80211
			c-0.48699,0.25894-0.95007,0.54379-1.39399,0.84708c-0.08467-13.00402,6.31324-25.32645,17.79416-31.8341
			c-6.36552,8.50005-8.35235,19.80165-4.81933,30.18492l0.00001,0.00001c0.17971,0.52789,0.37469,1.05321,0.58307,1.57586
			c0.10673,0.0382,0.21477,0.07324,0.32034,0.11415c0.50493,0.19566,0.99579,0.42253,1.46976,0.67946
			c0.16531-0.26661,0.33966-0.52967,0.52314-0.78875c0.02361-0.03331,0.04852-0.06592,0.07245-0.09911
			c1.43082-1.98735,3.38902-3.73441,5.79278-5.01251c2.87759-1.53004,5.95546-2.15793,8.82932-1.97853l0.00001,0.00001
			c0.11128,0.00693,0.22089,0.01975,0.33142,0.02917l13.22923,24.88057l-0.00021,0.00011
			c1.19371,2.24503,3.98138,3.09732,6.22644,1.9036c2.24501-1.1937,3.09733-3.9814,1.90363-6.22644l-1.04928-1.9734
			c-0.24372-0.45837-0.8129-0.63238-1.27122-0.38868c-0.45842,0.24375-0.6324,0.81289-0.38867,1.27127
			c0.00011,0.00022,0.00027,0.00039,0.00038,0.00061l1.04894,1.97277c0.70516,1.32621,0.19991,2.97885-1.12633,3.68402
			c-1.32609,0.70509-2.97844,0.2-3.68379-1.12585l0.0002-0.00011l-13.2187-24.86077
			c0.06052-0.10931,0.11791-0.21963,0.18147-0.32787c1.45832-2.48286,3.69998-4.68343,6.57757-6.21347
			c2.44398-1.29949,5.03223-1.94736,7.51751-2.00411c0.3174-0.00723,0.63297-0.00468,0.94645,0.00736
			c0.05202-0.53662,0.13841-1.07045,0.25857-1.59846c0.84641-3.7207,3.35387-7.14808,7.14081-9.16162
			c0.79679-0.42366,1.61382-0.76505,2.44043-1.02779c0.939-0.29847,1.8903-0.49193,2.83844-0.59062
			C113.34158,19.04915,112.66745,18.54188,111.97881,18.0584z M74.37157,41.62313c-2.33213,1.24002-4.24574,2.92134-5.66503,4.83557
			c-3.80824-10.07799-2.31111-21.14651,3.42006-29.74565l11.15344,22.93681C80.38323,39.45433,77.2754,40.07914,74.37157,41.62313z
			 M91.96198,32.27015c-2.90382,1.54399-5.15968,3.77114-6.61739,6.28204L72.56207,16.47272
			c10.33956,0.05369,20.36023,5.00582,26.58776,13.80436C96.76579,30.38174,94.29787,31.02813,91.96198,32.27015z
			 M107.82532,19.51331c-3.78096,2.01037-6.28783,5.4303-7.13903,9.14444c-0.00002-0.00005,0.00005-0.00014,0.00003-0.00019
			C94.05746,19.93057,83.58845,15.2585,72.9903,15.77589c-0.05643,0.02804-0.11298,0.05561-0.16965,0.08283l0.14755-0.07846
			c0,0-0.00179-0.00239-0.00232-0.00314c0.00812-0.00038,0.0163-0.00087,0.02442-0.00124
			c11.81138-5.86903,25.59538-4.28605,36.32378,3.0527C108.81203,19.02767,108.31454,19.25319,107.82532,19.51331z"/>
	</g>
	<g class="st1">
		<path d="M90.5717,73.49535c-1.76686-0.52991-4.25065-1.96157-6.75208-3.81517c0.48067-0.78606,0.91302-1.63833,1.27307-2.51633
			c0.7897-1.93446,1.15425-2.91366,2.94642-3.09663v-0.8301c-0.9731,0.04608-1.98551,0.06167-3.00832,0.06167
			c-0.97536,0-1.95884-0.01559-2.94618-0.06167v0.8301c0.66884,0.15632,1.37586,0.21572,2.0386,0.41406
			c0,0.7707-0.43143,2.12758-0.8091,3.04264c-0.20015,0.44114-0.42017,0.85744-0.65732,1.25251
			c-2.29317-1.83981-4.48491-4.00014-5.98184-6.12164c2.15719-1.01535,4.67669-2.24326,4.67669-4.84383
			c0-2.48584-1.7951-3.77383-4.306-3.77383c-2.749,0-5.05006,2.01218-5.05006,4.60577c0,1.3031,0.38264,2.64056,1.02956,3.95407
			c-2.48515,1.25274-4.1594,2.78062-4.1594,5.64006c0,4.1655,3.36182,6.198,7.10762,6.198c2.70654,0,4.75619-1.0786,6.34143-2.76299
			c2.82398,1.64216,5.75324,2.70991,8.10874,2.8059L90.5717,73.49535z M76.69664,55.56297
			c1.47907,0,1.98325,1.17551,1.98325,2.49803c0,1.73682-1.42892,2.65188-2.84342,3.2918
			c-0.71334-1.25727-1.13074-2.46709-1.13074-3.56872C74.70572,56.67387,75.51979,55.56297,76.69664,55.56297z M80.60397,71.11003
			c-0.96001,0.75558-2.38058,1.13642-3.53506,1.13642c-2.51703,0-4.683-1.92702-4.683-4.84385
			c0-1.47974,0.5778-2.4316,1.56424-3.21408c1.67355,2.48404,4.22557,4.8287,6.99895,6.64367
			C80.84045,70.93292,80.72276,71.02103,80.60397,71.11003z"/>
		<path d="M80.15829,87.48042c-0.21233-0.79761-0.60176-1.71468-1.56741-1.71468c-0.72961,0-1.59202,0.62116-2.14768,1.09258
			v6.76159c0,2.19241,0.94826,1.88813,2.70517,2.07607v0.86108c-1.54458,0-3.12126-0.06414-4.65499-0.06414
			c-1.15517,0-2.29768,0-3.46008,0.06414v-0.86108l1.84456-0.29792v-8.17516c0-0.96384-0.0804-1.76166-1.3092-1.76166
			c-0.24035,0-0.46577,0-0.70229,0.02351v-0.836c0.89744-0.21618,1.79915-0.4511,2.69728-0.68217
			c0.60898-0.18185,1.41764-0.47616,2.00221-0.47616c0.89811,0,0.87733,1.15833,0.87733,1.80389v0.30201
			c0.85767-0.94758,2.20867-2.166,3.58475-2.166c1.24576,0,2.23083,0.68623,2.23083,2.016
			C82.25878,86.53691,81.23145,87.46166,80.15829,87.48042z"/>
		<path d="M54.37515,96.49292c-1.21504,0-2.43831,0-3.64553,0.06414v-0.86108l1.78347-0.29792V88.9604
			c0-1.43547-0.03694-3.26039-1.97219-3.26039c-0.96937,0-2.42813,0.49583-3.2631,0.98281v7.38366
			c0,1.37991,0.4931,1.50324,1.76096,1.62951v0.86108c-1.2437,0-2.4908-0.06414-3.70953-0.06414
			c-1.16705,0-2.31972,0-3.48052,0.06414v-0.86108l1.84671-0.29792v-8.02448c0-1.02574-0.0174-1.91233-1.29227-1.91233
			c-0.23616,0-0.46918,0-0.70284,0.02351v-0.836c0.89947-0.21618,1.79802-0.4511,2.70008-0.68217
			c0.81669-0.22002,1.50833-0.47616,1.99366-0.47616c1.03962,0,0.88376,1.35033,0.88376,2.03633
			c1.4129-0.85701,3.71192-2.03633,5.37656-2.03633c1.08368,0,1.89313,0.23264,2.60839,1.07316
			c0.86207,0.98667,0.80764,2.61642,0.80764,3.86508v5.57297c0,1.77951,0.93266,1.48134,2.28163,1.69434v0.86108
			C57.0435,96.55706,55.70739,96.49292,54.37515,96.49292z"/>
		<path d="M16.3294,73.90194H0V73.0411l3.02266-0.53242V57.59095c0-1.77701-0.52959-2.22766-2.7926-2.28933v-0.85971h9.65897
			v0.85971L7.1013,55.7692v14.95773c0,1.65458,0.3832,1.84117,2.78772,1.84117c3.7999,0,5.08621-0.34041,5.99255-4.168h0.9468
			L16.3294,73.90194z"/>
		<path d="M28.27023,88.19624c-1.33,0-1.86172,0.35825-1.86172,1.75534c0,0,0,4.1,0,5.5314
			c-2.00224,0.83443-4.42438,1.45717-7.35937,1.45717c-5.90188,0-9.82454-4.11399-9.82454-9.86407
			c0-5.64525,4.47665-10.237,10.29256-10.237c2.83234,0,5.1071,0.6876,6.77715,1.28302l-0.03805,4.92108h-0.83996
			c-0.27773-1.50484-0.79205-2.77227-1.75363-3.64868c-0.92376-0.81567-2.14712-1.27781-3.62701-1.27781
			c-5.01268,0-6.20352,5.79909-6.20352,9.12722c0,3.41627,1.21897,8.4295,5.64289,8.4295c2.40734,0,3.06623-0.7531,3.06623-3.26559
			v-3.85333l-2.38227-0.35825v-0.95232h8.49873v0.95232H28.27023z"/>
		<path d="M91.90125,96.72489c-1.35259,0-2.26833-0.26067-2.76572-1.64466c-0.92068,1.38399-2.71465,1.77567-4.04285,1.77567
			c-2.40338,0-4.63309-1.02798-4.63309-3.68324c0-4.25067,5.51357-4.29358,8.54268-4.29358v-1.63518
			c0-1.58975-0.74632-2.20957-2.42599-2.20957c-1.09554,0-2.29227,0.34425-3.30829,0.7079v-1.58748
			c1.41178-0.40819,2.80953-0.68376,4.53529-0.68376c1.22157,0,2.91705,0.25208,3.83458,1.13642
			c0.98755,0.94284,0.95096,2.12307,0.95096,3.41307v5.83591c0,1.02573,0.30676,1.83958,1.3336,1.83958
			c0.89857,0,1.84232-0.08424,2.71648-0.16534V80.8047c0-1.04654-0.01356-1.93085-1.28165-1.93085
			c-0.23041,0-0.46307,0.02033-0.7102,0.04359v-0.83576c0.90128-0.20781,1.80211-0.44882,2.7106-0.67992
			c0.81318-0.21774,1.50618-0.48,1.99002-0.48c1.03455,0,0.87914,1.31036,0.87914,2.04267v15.10206
			c0,1.3955,0.81317,1.46417,2.9559,1.62951v0.86108C99.40642,96.55706,95.67891,96.72489,91.90125,96.72489z M89.00228,90.12099
			c-1.90918,0-4.66901,0.34265-4.66901,2.98234c0,1.33315,0.6049,2.16982,2.00177,2.16982
			c1.12897,0,2.00448-0.81725,2.37223-1.71875c0.25748-0.68758,0.29501-1.24483,0.29501-1.99657V90.12099z"/>
		<path d="M54.49282,74.07135c-1.38015,0-2.28186-0.25682-2.77666-1.65075c-0.92272,1.39393-2.71872,1.80299-4.06553,1.80299
			c-2.38872,0-4.63602-1.03272-4.63602-3.69181c0-4.25067,5.52406-4.31234,8.57778-4.31234v-1.63199
			c0-1.58797-0.76677-2.187-2.44585-2.187c-1.09893,0-2.31575,0.33814-3.30626,0.68644v-1.58637
			c1.4199-0.38716,2.78931-0.67245,4.55719-0.67245c1.19491,0,2.91174,0.23921,3.83696,1.12106
			c0.96451,0.94488,0.91594,2.1434,0.91594,3.43433v5.81489c0,1.02934,0.30902,1.86692,1.35553,1.86692
			c0.88432,0,1.82579-0.08674,2.72774-0.19448V58.14978c0-1.05305-0.02394-1.92722-1.29882-1.92722
			c-0.23017,0-0.46351,0.04607-0.69775,0.0637v-0.86221c0.89991-0.21187,1.80141-0.44859,2.68259-0.6851
			c0.81158-0.2121,1.49556-0.4739,2.01961-0.4739c1.00608,0,0.86739,1.3327,0.86739,2.03836v15.10477
			c0,1.40183,0.80008,1.4626,2.96539,1.65708v0.83667C61.97633,73.90194,58.26302,74.07135,54.49282,74.07135z M51.59238,67.4679
			c-1.93344,0-4.69609,0.33701-4.69609,2.97961c0,1.32683,0.60252,2.18834,1.98889,2.18834
			c1.15934,0,2.04616-0.83665,2.38556-1.73408c0.25478-0.66817,0.32165-1.2505,0.32165-1.99974V67.4679z"/>
		<path d="M70.41348,89.83907l-8.66261,0.13124c0.07321,3.17908,1.4181,5.26376,4.82803,5.26376
			c0.92565,0,2.02708-0.19675,2.81992-0.45425v1.11699c-1.48675,0.66026-2.7499,0.94125-4.43159,0.94125
			c-4.02591,0-7.13857-2.63673-7.13857-6.76405c0-4.07335,3.04401-6.58357,6.99287-6.58357
			c3.15221,0,5.64437,2.16373,5.64437,5.38866C70.4659,89.17815,70.44783,89.52376,70.41348,89.83907z M64.68917,84.74091
			c-2.03249,0-2.80726,2.35484-2.894,4.05075l3.45464-0.34425c0.90578-0.08965,1.45693-0.21301,1.45693-1.2674
			C66.70674,85.97718,66.00065,84.74091,64.68917,84.74091z"/>
		<path d="M44.21698,62.07653c-0.60313-0.45042-1.27263-0.8125-2.0194-0.8125c-0.57792,0-0.86433,0.597-1.05419,1.04808
			c0.83848,0.68737,1.35551,1.91143,1.35551,2.98188c0,3.10611-2.53271,4.9177-5.47392,4.9177
			c-0.61349,0-1.21615-0.021-1.82152-0.17324c-0.32212,0.40906-0.81498,0.79374-1.3064,0.98665
			c0.03932,0.62817,0.74938,0.6625,1.21955,0.6625c1.0272,0,2.04186-0.0804,3.04636-0.0804
			c2.25431,0,4.78138,0.68916,4.78138,3.38666c0,3.80116-3.83638,5.38482-7.09474,5.38482
			c-2.27522,0-5.86223-1.03275-5.86223-3.85424c0-1.29183,1.03083-2.15018,2.1023-2.6444
			c-0.88263-0.53151-1.15675-1.54527-1.15675-2.53125c0-0.17551,0.0201-0.33951,0.04506-0.51659
			c0.87949-0.10526,2.5316-0.53376,3.09336-1.22179c-1.77058-0.68893-2.77645-2.06096-2.77645-3.96899
			c0-3.24096,2.79193-4.81334,5.73009-4.81334c1.09858,0,2.40123,0.26248,3.32342,0.88275
			c0.34615-1.34489,1.39844-2.29271,2.81867-2.29271c0.57521,0,1.79644,0.17324,1.79644,0.96384
			C44.96352,61.02438,44.61452,61.60648,44.21698,62.07653z M36.81253,62.1802c-1.54469,0-2.20832,1.24576-2.20832,2.89808
			c0,1.91617,0.49015,3.80025,2.39876,3.80025c1.54943,0,2.16655-1.20033,2.16655-2.87457
			C39.16952,64.22354,38.67913,62.1802,36.81253,62.1802z M37.77311,74.50143c-1.1171,0-1.65551,0.11068-2.7673,0.11068
			c-0.73446,0-1.41042-0.06867-1.94971-0.23785c-0.36604,0.28076-0.73129,0.94351-0.73129,1.3946
			c0,1.77725,1.72055,2.44382,4.21338,2.44382c2.80083,0,4.47622-0.9015,4.47622-2.2534
			C41.01442,74.46234,38.97763,74.50143,37.77311,74.50143z"/>
		<path d="M30.07729,67.31609l-8.66712,0.1247c0.08607,3.15649,1.41526,5.25989,4.85003,5.25989
			c0.92704,0,2.00381-0.192,2.79487-0.45423v1.10207c-1.47604,0.68215-2.75441,0.94441-4.40268,0.94441
			c-4.03484,0-7.1431-2.62408-7.1431-6.7435c0-4.10091,3.02242-6.60865,6.96611-6.60865c3.18325,0,5.65385,2.1651,5.65385,5.38279
			C30.12924,66.6511,30.10518,66.99445,30.07729,67.31609z M24.34958,62.1802c-2.01419,0-2.81381,2.38601-2.89886,4.05799
			l3.46176-0.3194c0.89674-0.08651,1.46145-0.24102,1.46145-1.26743C26.37393,63.44853,25.66489,62.1802,24.34958,62.1802z"/>
		<path d="M41.57031,89.83907l-8.66656,0.13124c0.09227,3.17908,1.42363,5.26376,4.8584,5.26376
			c0.91698,0,1.98336-0.19675,2.78198-0.45425v1.11699c-1.4861,0.66026-2.73861,0.94125-4.40032,0.94125
			c-4.03368,0-7.13991-2.63673-7.13991-6.76405c0-4.07335,3.01373-6.58357,6.97129-6.58357
			c3.17004,0,5.64448,2.16373,5.64448,5.38866C41.61967,89.17815,41.59367,89.52376,41.57031,89.83907z M35.84961,84.74091
			c-2.01861,0-2.80953,2.35484-2.88126,4.05075l3.44314-0.34425c0.89528-0.08965,1.45411-0.21301,1.45411-1.2674
			C37.86561,85.97718,37.15847,84.74091,35.84961,84.74091z"/>
	</g>
</g>
<g id="Path">
</g>
<g id="AW">
	<g>
		<path d="M91.65246,73.58888c-1.76686-0.52991-4.25065-1.96157-6.75208-3.81517c0.48067-0.78606,0.91302-1.63833,1.27308-2.51633
			c0.78969-1.93446,1.15425-2.91367,2.94641-3.09663v-0.8301c-0.97309,0.04608-1.98551,0.06167-3.00831,0.06167
			c-0.97536,0-1.95885-0.01559-2.94619-0.06167v0.8301c0.66884,0.15632,1.37586,0.21571,2.0386,0.41406
			c0,0.7707-0.43143,2.12758-0.8091,3.04263c-0.20015,0.44115-0.42017,0.85744-0.65733,1.25251
			c-2.29317-1.83981-4.48491-4.00014-5.98183-6.12164c2.15718-1.01535,4.67668-2.24326,4.67668-4.84383
			c0-2.48584-1.7951-3.77383-4.30599-3.77383c-2.749,0-5.05006,2.01218-5.05006,4.60577c0,1.3031,0.38264,2.64056,1.02955,3.95407
			c-2.48515,1.25274-4.15939,2.78062-4.15939,5.64006c0,4.1655,3.36182,6.198,7.10762,6.198c2.70653,0,4.75618-1.0786,6.34142-2.763
			c2.82399,1.64217,5.75324,2.70992,8.10875,2.8059L91.65246,73.58888z M77.7774,55.6565c1.47907,0,1.98325,1.17551,1.98325,2.49803
			c0,1.73682-1.42892,2.65188-2.84341,3.29181c-0.71334-1.25727-1.13075-2.46709-1.13075-3.56872
			C75.78648,56.7674,76.60055,55.6565,77.7774,55.6565z M81.68472,71.20356c-0.96001,0.75558-2.38058,1.13642-3.53506,1.13642
			c-2.51702,0-4.683-1.92702-4.683-4.84385c0-1.47974,0.5778-2.4316,1.56424-3.21408
			c1.67355,2.48404,4.22557,4.8287,6.99895,6.64367C81.92121,71.02645,81.80352,71.11456,81.68472,71.20356z"/>
		<path d="M80.15829,87.57395c-0.21233-0.79761-0.60176-1.71468-1.56741-1.71468c-0.72961,0-1.59202,0.62117-2.14768,1.09259
			v6.76159c0,2.19241,0.94826,1.88813,2.70517,2.07607v0.86108c-1.54458,0-3.12126-0.06414-4.65499-0.06414
			c-1.15517,0-2.29768,0-3.46008,0.06414v-0.86108l1.84456-0.29792v-8.17516c0-0.96384-0.0804-1.76166-1.3092-1.76166
			c-0.24035,0-0.46577,0-0.70229,0.02351v-0.83601c0.89744-0.21617,1.79915-0.45109,2.69728-0.68216
			c0.60898-0.18185,1.41764-0.47616,2.00221-0.47616c0.89811,0,0.87733,1.15832,0.87733,1.80389v0.30202
			c0.85767-0.94759,2.20867-2.166,3.58475-2.166c1.24576,0,2.23083,0.68623,2.23083,2.016
			C82.25878,86.63044,81.23145,87.55519,80.15829,87.57395z"/>
		<path d="M54.37515,96.58645c-1.21504,0-2.43831,0-3.64553,0.06414v-0.86108l1.78347-0.29792v-6.43767
			c0-1.43547-0.03694-3.26039-1.97219-3.26039c-0.96937,0-2.42813,0.49583-3.2631,0.98281V94.16
			c0,1.37991,0.4931,1.50324,1.76096,1.62951v0.86108c-1.2437,0-2.4908-0.06414-3.70953-0.06414
			c-1.16705,0-2.31972,0-3.48052,0.06414v-0.86108l1.84671-0.29792v-8.02448c0-1.02574-0.0174-1.91233-1.29227-1.91233
			c-0.23616,0-0.46918,0-0.70284,0.02351v-0.83601c0.89947-0.21617,1.79802-0.45109,2.70008-0.68216
			c0.81669-0.22002,1.50833-0.47616,1.99366-0.47616c1.03962,0,0.88376,1.35033,0.88376,2.03632
			c1.4129-0.857,3.71192-2.03632,5.37656-2.03632c1.08368,0,1.89313,0.23264,2.60839,1.07315
			c0.86207,0.98668,0.80764,2.61642,0.80764,3.86509v5.57297c0,1.77951,0.93266,1.48134,2.28163,1.69434v0.86108
			C57.0435,96.65059,55.70739,96.58645,54.37515,96.58645z"/>
		<path d="M16.3294,73.99547H0v-0.86085l3.02266-0.53241V57.68448c0-1.77702-0.52959-2.22766-2.7926-2.28933v-0.85971h9.65897
			v0.85971L7.1013,55.86273v14.95772c0,1.65459,0.3832,1.84118,2.78772,1.84118c3.7999,0,5.08621-0.34041,5.99255-4.168h0.9468
			L16.3294,73.99547z"/>
		<path d="M28.27023,88.28976c-1.33,0-1.86172,0.35824-1.86172,1.75534c0,0,0,4.1,0,5.5314
			c-2.00224,0.83443-4.42438,1.45717-7.35937,1.45717c-5.90188,0-9.82454-4.114-9.82454-9.86407
			c0-5.64525,4.47665-10.237,10.29256-10.237c2.83234,0,5.1071,0.6876,6.77715,1.28302l-0.03805,4.92108h-0.83996
			c-0.27773-1.50484-0.79205-2.77227-1.75363-3.64868c-0.92376-0.81567-2.14712-1.27782-3.62701-1.27782
			c-5.01268,0-6.20352,5.79909-6.20352,9.12723c0,3.41627,1.21897,8.4295,5.64289,8.4295c2.40734,0,3.06623-0.75311,3.06623-3.26559
			V88.648l-2.38227-0.35824v-0.95232h8.49873v0.95232H28.27023z"/>
		<path d="M91.90125,96.81842c-1.35259,0-2.26833-0.26068-2.76572-1.64466c-0.92068,1.38398-2.71465,1.77567-4.04285,1.77567
			c-2.40338,0-4.63309-1.02798-4.63309-3.68324c0-4.25067,5.51357-4.29358,8.54268-4.29358v-1.63518
			c0-1.58975-0.74632-2.20957-2.42599-2.20957c-1.09554,0-2.29227,0.34425-3.30829,0.7079v-1.58749
			c1.41178-0.40818,2.80953-0.68375,4.53529-0.68375c1.22157,0,2.91705,0.25208,3.83458,1.13642
			c0.98755,0.94284,0.95096,2.12306,0.95096,3.41307v5.83591c0,1.02574,0.30676,1.83958,1.3336,1.83958
			c0.89857,0,1.84232-0.08424,2.71648-0.16534V80.89822c0-1.04654-0.01356-1.93085-1.28165-1.93085
			c-0.23041,0-0.46307,0.02032-0.7102,0.04359v-0.83577c0.90128-0.2078,1.80211-0.44882,2.7106-0.67992
			c0.81318-0.21775,1.50618-0.48,1.99002-0.48c1.03455,0,0.87914,1.31036,0.87914,2.04267V94.16
			c0,1.3955,0.81317,1.46417,2.9559,1.62951v0.86108C99.40642,96.65059,95.67891,96.81842,91.90125,96.81842z M89.00228,90.21452
			c-1.90918,0-4.66901,0.34265-4.66901,2.98234c0,1.33314,0.6049,2.16982,2.00177,2.16982
			c1.12897,0,2.00448-0.81725,2.37223-1.71875c0.25748-0.68758,0.29501-1.24483,0.29501-1.99657V90.21452z"/>
		<path d="M55.57358,74.16487c-1.38015,0-2.28186-0.25681-2.77666-1.65074c-0.92272,1.39393-2.71872,1.80299-4.06553,1.80299
			c-2.38872,0-4.63602-1.03272-4.63602-3.69181c0-4.25067,5.52406-4.31234,8.57778-4.31234v-1.63199
			c0-1.58797-0.76677-2.187-2.44585-2.187c-1.09893,0-2.31575,0.33815-3.30626,0.68644v-1.58638
			c1.41991-0.38715,2.78932-0.67245,4.55719-0.67245c1.19492,0,2.91175,0.23922,3.83696,1.12106
			c0.96451,0.94487,0.91594,2.1434,0.91594,3.43433v5.81488c0,1.02935,0.30902,1.86693,1.35553,1.86693
			c0.88432,0,1.8258-0.08674,2.72775-0.19448V58.24331c0-1.05306-0.02394-1.92722-1.29882-1.92722
			c-0.23017,0-0.46351,0.04607-0.69775,0.0637v-0.86221c0.89991-0.21188,1.80142-0.44859,2.68259-0.6851
			c0.81158-0.2121,1.49556-0.47389,2.0196-0.47389c1.00608,0,0.86739,1.3327,0.86739,2.03836v15.10476
			c0,1.40184,0.80008,1.46261,2.96539,1.65709v0.83667C63.05709,73.99547,59.34378,74.16487,55.57358,74.16487z M52.67314,67.56142
			c-1.93344,0-4.69609,0.33701-4.69609,2.97961c0,1.32683,0.60252,2.18834,1.98889,2.18834
			c1.15934,0,2.04616-0.83665,2.38555-1.73409c0.25478-0.66817,0.32165-1.2505,0.32165-1.99973V67.56142z"/>
		<path d="M70.41348,89.9326l-8.66261,0.13124c0.07321,3.17908,1.4181,5.26376,4.82803,5.26376
			c0.92565,0,2.02708-0.19675,2.81992-0.45425v1.11699c-1.48675,0.66026-2.7499,0.94124-4.43159,0.94124
			c-4.02591,0-7.13857-2.63672-7.13857-6.76404c0-4.07336,3.04401-6.58357,6.99287-6.58357
			c3.15221,0,5.64437,2.16373,5.64437,5.38866C70.4659,89.27168,70.44783,89.61729,70.41348,89.9326z M64.68917,84.83443
			c-2.03249,0-2.80726,2.35484-2.894,4.05075l3.45464-0.34425c0.90578-0.08965,1.45693-0.21301,1.45693-1.26741
			C66.70674,86.07071,66.00065,84.83443,64.68917,84.83443z"/>
		<path d="M44.21698,62.17006c-0.60313-0.45042-1.27263-0.8125-2.0194-0.8125c-0.57792,0-0.86433,0.597-1.05419,1.04808
			c0.83848,0.68737,1.35551,1.91143,1.35551,2.98188c0,3.10611-2.53271,4.9177-5.47392,4.9177
			c-0.61349,0-1.21615-0.021-1.82152-0.17325c-0.32212,0.40907-0.81498,0.79375-1.3064,0.98666
			c0.03932,0.62817,0.74938,0.6625,1.21955,0.6625c1.0272,0,2.04186-0.08041,3.04636-0.08041
			c2.25431,0,4.78138,0.68917,4.78138,3.38666c0,3.80116-3.83638,5.38483-7.09474,5.38483
			c-2.27522,0-5.86223-1.03275-5.86223-3.85424c0-1.29183,1.03083-2.15018,2.1023-2.6444
			c-0.88263-0.53152-1.15675-1.54527-1.15675-2.53125c0-0.17551,0.0201-0.33951,0.04506-0.51659
			c0.87949-0.10527,2.5316-0.53376,3.09336-1.22179c-1.77058-0.68894-2.77645-2.06097-2.77645-3.96899
			c0-3.24096,2.79193-4.81334,5.73009-4.81334c1.09858,0,2.40123,0.26249,3.32342,0.88275
			c0.34615-1.34489,1.39844-2.29271,2.81867-2.29271c0.57521,0,1.79644,0.17325,1.79644,0.96384
			C44.96352,61.1179,44.61452,61.7,44.21698,62.17006z M36.81253,62.27373c-1.54469,0-2.20832,1.24575-2.20832,2.89808
			c0,1.91617,0.49015,3.80025,2.39876,3.80025c1.54943,0,2.16655-1.20033,2.16655-2.87458
			C39.16952,64.31707,38.67913,62.27373,36.81253,62.27373z M37.77311,74.59496c-1.1171,0-1.65551,0.11068-2.7673,0.11068
			c-0.73446,0-1.41042-0.06868-1.94971-0.23785c-0.36604,0.28075-0.73129,0.94351-0.73129,1.3946
			c0,1.77724,1.72055,2.44382,4.21338,2.44382c2.80083,0,4.47622-0.9015,4.47622-2.25341
			C41.01442,74.55587,38.97763,74.59496,37.77311,74.59496z"/>
		<path d="M30.07729,67.40962l-8.66712,0.12469c0.08607,3.15649,1.41526,5.2599,4.85003,5.2599
			c0.92704,0,2.00381-0.192,2.79487-0.45423v1.10207c-1.47604,0.68216-2.75441,0.94442-4.40268,0.94442
			c-4.03484,0-7.1431-2.62408-7.1431-6.74351c0-4.1009,3.02242-6.60865,6.96611-6.60865c3.18325,0,5.65385,2.1651,5.65385,5.38279
			C30.12924,66.74462,30.10518,67.08797,30.07729,67.40962z M24.34958,62.27373c-2.01419,0-2.81381,2.38601-2.89886,4.05799
			l3.46176-0.31941c0.89674-0.0865,1.46145-0.24101,1.46145-1.26743C26.37393,63.54206,25.66489,62.27373,24.34958,62.27373z"/>
		<path d="M41.57031,89.9326l-8.66656,0.13124c0.09227,3.17908,1.42363,5.26376,4.8584,5.26376
			c0.91698,0,1.98336-0.19675,2.78198-0.45425v1.11699c-1.4861,0.66026-2.73861,0.94124-4.40032,0.94124
			c-4.03368,0-7.13991-2.63672-7.13991-6.76404c0-4.07336,3.01373-6.58357,6.97129-6.58357
			c3.17004,0,5.64448,2.16373,5.64448,5.38866C41.61967,89.27168,41.59367,89.61729,41.57031,89.9326z M35.84961,84.83443
			c-2.01861,0-2.80953,2.35484-2.88126,4.05075l3.44314-0.34425c0.89528-0.08965,1.45411-0.21301,1.45411-1.26741
			C37.86561,86.07071,37.15847,84.83443,35.84961,84.83443z"/>
	</g>
	<path class="st4" d="M99.92346,28.32141c1.36621-3.80939,4.05737-6.9306,7.64722-8.84436
		c0.54028-0.28784,1.09277-0.53998,1.65326-0.76324c-5.91351-3.70862-12.76477-5.69519-19.71606-5.69519
		c-4.37164,0-8.78241,0.78687-13.02399,2.42267C88.0639,16.26282,95.72906,23.13208,99.92346,28.32141z"/>
	<path class="st5" d="M54.6001,39.18201c-0.93323,3.12061-1.44946,6.30243-1.56061,9.47992
		c0.49774-0.34192,1.01855-0.6604,1.5636-0.95093c3.55438-1.89398,7.59369-2.39331,11.4743-1.43634
		c-1.93219-6.38843-3.29218-16.54999,2.46484-26.58582C61.87714,24.38751,56.99677,31.17096,54.6001,39.18201z"/>
	<path class="st2" d="M68.23486,46.43976c1.58124-1.94049,3.547-3.56494,5.82001-4.77661
		c2.80804-1.49792,5.87476-2.2533,8.96887-2.24567l-11.20685-21.1153C64.39478,28.87756,66.14917,40.02502,68.23486,46.43976z"/>
	<path class="st3" d="M91.69434,32.26367c2.23456-1.19196,4.633-1.91327,7.07855-2.1546
		c-4.14136-5.3103-12.3476-12.95044-25.15839-12.72314L84.81,38.47992C86.53528,35.89679,88.87964,33.76416,91.69434,32.26367z"/>
	<path d="M111.72571,17.94537c-11.34509-7.82257-26.38086-9.388-39.35107-2.89545l-0.02979,0.01593l-2.11017-3.13525
		l-0.05676-0.07996c-0.16431-0.23175-0.47876-0.31207-0.73822-0.17407c-0.25946,0.13794-0.36871,0.44354-0.26849,0.70935
		l0.03204,0.08557l1.42297,3.51172l-0.03119,0.01666c-8.68054,4.92273-15.02777,12.91162-17.92542,22.60181
		c-1.15295,3.8548-1.70355,7.7981-1.66797,11.71857c0.00867,0.9519,0.05182,1.90234,0.12976,2.84991
		c0.56427-0.70825,1.20111-1.36688,1.90582-1.96515c0.76044-0.64557,1.59802-1.22192,2.51288-1.70966
		c2.08411-1.11029,4.35815-1.67383,6.65295-1.67383c1.39594,0,2.79974,0.20825,4.1731,0.62866
		c0.12006,0.0368,0.23737,0.07898,0.35596,0.11871c0.04315,0.0144,0.08661,0.02838,0.1297,0.04321
		c0.60785,0.21002,1.19562,0.45905,1.76172,0.74396c0.13849-0.21869,0.28162-0.43402,0.42969-0.64587
		c0.24268-0.34698,0.49493-0.68683,0.7627-1.01416c1.41077-1.72516,3.16199-3.16992,5.18604-4.24854
		c2.49951-1.33234,5.22742-2.00842,7.97998-2.00842c0.07013,0,0.14038,0.00311,0.21063,0.00397
		c0.30835,0.00391,0.617,0.01544,0.9256,0.03632l12.92944,24.36096l0.35852,0.67554c0.1051,0.19818,0.22345,0.38647,0.35297,0.56482
		c0.30841,0.42474,0.68335,0.79028,1.11011,1.08575c0.1394,0.09656,0.28387,0.18628,0.43396,0.26733
		c0.27063,0.1463,0.55774,0.26678,0.85846,0.35895C100.61255,68.93091,101.07422,69,101.53302,69
		c0.75305,0,1.50031-0.18555,2.18445-0.54974c0.32391-0.17273,0.6181-0.37939,0.88281-0.61194
		c0.75708-0.66479,1.2644-1.54773,1.47717-2.50177c0.23474-1.05212,0.1123-2.1897-0.43042-3.21442l-1.02283-1.92847
		c-0.2619-0.49249-0.87225-0.68201-1.36353-0.41748c-0.49121,0.26154-0.67828,0.87341-0.41638,1.36688l1.02283,1.92749
		c0.50928,0.9624,0.36755,2.09973-0.26813,2.90308c-0.2196,0.27747-0.49719,0.51569-0.82855,0.69226
		c-0.42834,0.22815-0.89172,0.32477-1.34491,0.30634c-0.03613-0.0011-0.07202-0.00275-0.10748-0.00562
		c-0.02832-0.00232-0.05652-0.00604-0.08478-0.00922c-1.10883-0.13336-1.84753-1.09326-2.19946-1.67773l-0.21204-0.39948
		L85.90625,40.54541c0.15942-0.27606,0.32513-0.54785,0.49933-0.8136c1.54993-2.36548,3.67365-4.31836,6.23584-5.68378
		c2.02289-1.07831,4.19543-1.72632,6.40955-1.93439c0.37811-0.03552,0.75757-0.05762,1.1377-0.06744
		c0.14417-0.00366,0.28839-0.00659,0.43274-0.00659c0.15649,0,0.31323,0.00446,0.46991,0.00885
		c0.07526-0.58563,0.18451-1.16968,0.33362-1.74933c0.02234-0.08679,0.0484-0.17303,0.07239-0.25964
		c0.03363-0.12152,0.06464-0.24347,0.10162-0.36456c1.1095-3.63879,3.56671-6.6272,6.91876-8.41351
		c0.90247-0.48083,1.84076-0.85864,2.80078-1.133c0.87903-0.25122,1.77637-0.41449,2.68152-0.49048
		C113.26038,19.04486,112.50177,18.48047,111.72571,17.94537z M66.07739,46.27466c-3.88062-0.95697-7.91992-0.45764-11.4743,1.43634
		c-0.54504,0.29053-1.06586,0.60901-1.5636,0.95093c0.11115-3.17749,0.62738-6.35931,1.56061-9.47992
		c2.39667-8.01105,7.27704-14.79449,13.94214-19.49316C62.78522,29.72467,64.1452,39.88623,66.07739,46.27466z M74.05487,41.66315
		c-2.27301,1.21167-4.23877,2.83612-5.82001,4.77661c-2.08569-6.41473-3.84009-17.56219,3.58203-28.13757l11.20685,21.1153
		C79.92963,39.40985,76.86292,40.16522,74.05487,41.66315z M91.69434,32.26367c-2.8147,1.50049-5.15906,3.63312-6.88434,6.21625
		L73.6145,17.38593c12.81079-0.22729,21.01703,7.41284,25.15839,12.72314C96.32733,30.3504,93.92889,31.07172,91.69434,32.26367z
		 M107.57068,19.47705c-3.58984,1.91376-6.28101,5.03497-7.64722,8.84436c-4.1944-5.18933-11.85956-12.05859-23.43958-12.88013
		c4.24158-1.6358,8.65234-2.42267,13.02399-2.42267c6.95129,0,13.80255,1.98657,19.71606,5.69519
		C108.66345,18.93707,108.11096,19.18921,107.57068,19.47705z"/>
</g>
</svg>
